<svg width="24" height="25" viewBox="0 0 24 25" fill="none" xmlns="http://www.w3.org/2000/svg">
<g clip-path="url(#clip0_2340_52712)">
<path d="M11.9197 21.4402C16.8573 21.4402 20.8599 17.4376 20.8599 12.5C20.8599 7.56249 16.8573 3.55981 11.9197 3.55981C6.98216 3.55981 2.97949 7.56249 2.97949 12.5C2.97949 17.4376 6.98216 21.4402 11.9197 21.4402Z" stroke="#8169FA" stroke-width="1.49004" stroke-miterlimit="10"/>
<path d="M2.97949 12.5H20.8599" stroke="#8169FA" stroke-width="1.49004" stroke-linecap="round" stroke-linejoin="round"/>
<path d="M11.9204 21.1982C13.9777 21.1982 15.6455 17.3039 15.6455 12.5001C15.6455 7.69627 13.9777 3.802 11.9204 3.802C9.86309 3.802 8.19531 7.69627 8.19531 12.5001C8.19531 17.3039 9.86309 21.1982 11.9204 21.1982Z" stroke="#8169FA" stroke-width="1.49004" stroke-miterlimit="10"/>
</g>
<defs>
<clipPath id="clip0_2340_52712">
<rect width="23.8406" height="23.8406" fill="white" transform="translate(0 0.57959)"/>
</clipPath>
</defs>
</svg>
